<?xml version="1.0" encoding="UTF-8" standalone="no"?>
<!-- Generator: Adobe Illustrator 18.1.1, SVG Export Plug-In . SVG Version: 6.00 Build 0)  -->
<svg xmlns:rdf="http://www.w3.org/1999/02/22-rdf-syntax-ns#" xmlns="http://www.w3.org/2000/svg" enable-background="new 0 0 400 400" xml:space="preserve" viewBox="0 0 329.97528 329.97528" height="329.98" width="329.98" version="1.1" y="0px" x="0px" xmlns:cc="http://creativecommons.org/ns#" xmlns:dc="http://purl.org/dc/elements/1.1/"><metadata><rdf:RDF><cc:Work rdf:about=""><dc:format>image/svg+xml</dc:format><dc:type rdf:resource="http://purl.org/dc/dcmitype/StillImage"/><dc:title/></cc:Work></rdf:RDF></metadata><g fill="#f24747" transform="translate(-35.012 -35.042)"><path d="m189.4 35.6-99.9 50c-1.6 0.8-2.7 2.5-2.7 4.3v220.3c0 1.8 1 3.5 2.7 4.3l99.9 50c3.2 1.6 7-0.7 7-4.3v-320.3c0.1-3.6-3.7-6-7-4.3z"/><path d="m210.6 364.4 99.9-50c1.6-0.8 2.7-2.5 2.7-4.3v-107.1c0-1.8-1-3.5-2.7-4.3l-99.9-50c-3.2-1.6-7 0.7-7 4.3v207.1c-0.1 3.6 3.7 6 7 4.3z"/></g></svg>
