<?xml version="1.0" encoding="UTF-8" standalone="no"?>
<svg xmlns:rdf="http://www.w3.org/1999/02/22-rdf-syntax-ns#" xmlns="http://www.w3.org/2000/svg" height="2500" width="2500" version="1.1" xmlns:cc="http://creativecommons.org/ns#" xmlns:dc="http://purl.org/dc/elements/1.1/" viewBox="0 0 84.1 84.063047">
 <metadata>
  <rdf:RDF>
   <cc:Work rdf:about="">
    <dc:format>image/svg+xml</dc:format>
    <dc:type rdf:resource="http://purl.org/dc/dcmitype/StillImage"/>
    <dc:title>laravel</dc:title>
   </cc:Work>
  </rdf:RDF>
 </metadata>
 <title>laravel</title>
 <path fill="#fb503b" d="m83.778 40.145c-0.6-0.6-8.3-10.3-9.6-11.9-1.4-1.6-2-1.3-2.9-1.2s-10.6 1.8-11.7 1.9c-1.1 0.2-1.8 0.6-1.1 1.6 0.6 0.9 7 9.9 8.4 12l-25.5 6.1-20.2-33.9c-0.8-1.2-1-1.6-2.8-1.5s-15.9 1.3-16.9 1.3c-1 0.1-2.1 0.5-1.1 2.9s17 36.8 17.4 37.8 1.6 2.6 4.3 2c2.8-0.7 12.4-3.2 17.7-4.6 2.8 5 8.4 15.2 9.5 16.7 1.4 2 2.4 1.6 4.5 1 1.7-0.5 26.2-9.3 27.3-9.8s1.8-0.8 1-1.9c-0.6-0.8-7-9.5-10.4-14 2.3-0.6 10.6-2.8 11.5-3.1 1-0.3 1.2-0.8 0.6-1.4zm-46.3 9.5c-0.3 0.1-14.6 3.5-15.3 3.7-0.8 0.2-0.8 0.1-0.8-0.2-0.2-0.3-17-35.1-17.3-35.5-0.2-0.4-0.2-0.8 0-0.8s13.5-1.2 13.9-1.2c0.5 0 0.4 0.1 0.6 0.4 0 0 18.7 32.3 19 32.8 0.4 0.5 0.2 0.7-0.1 0.8zm40.2 7.5c0.2 0.4 0.5 0.6-0.3 0.8-0.7 0.3-24.1 8.2-24.6 8.4s-0.8 0.3-1.4-0.6-8.2-14-8.2-14l24.9-6.5c0.6-0.2 0.8-0.3 1.2 0.3 0.4 0.7 8.2 11.3 8.4 11.6zm1.6-17.6c-0.6 0.1-9.7 2.4-9.7 2.4l-7.5-10.2c-0.2-0.3-0.4-0.6 0.1-0.7s9-1.6 9.4-1.7 0.7-0.2 1.2 0.5c0.5 0.6 6.9 8.8 7.2 9.1s-0.1 0.5-0.7 0.6z"/>
</svg>
